# This file uses centimeters as units for non-parametric coordinates.

mtllib Cyliner_Tube.mtl
g default
v 6.502247 7.717091 -10.967972
v 6.342947 6.949393 -11.984581
v 6.220976 5.901344 -12.715985
v 6.148273 4.675537 -13.090592
v 6.131958 3.391943 -13.071714
v 6.173628 2.176220 -12.661205
v 6.269201 1.147378 -11.899248
v 6.409325 0.406112 -10.860438
v 6.580278 0.024988 -9.646456
v 6.765333 0.041333 -8.376135
v 6.946369 0.453518 -7.173824
v 7.105669 1.221205 -6.157210
v 7.227642 2.269243 -5.425800
v 7.300343 3.495065 -5.051205
v 7.316656 4.778657 -5.070086
v 7.274988 5.994374 -5.480591
v 7.179413 7.023217 -6.242550
v 7.039291 7.764481 -7.281359
v 6.868338 8.145603 -8.495335
v 6.683285 8.129271 -9.765657
v 6.490780 8.120438 -11.180680
v 6.313778 7.267448 -12.310254
v 6.178255 6.102950 -13.122924
v 6.097477 4.740934 -13.539141
v 6.079350 3.314720 -13.518164
v 6.125648 1.963918 -13.062045
v 6.231840 0.820755 -12.215433
v 6.387533 -0.002873 -11.061199
v 6.577484 -0.426337 -9.712328
v 6.783096 -0.408190 -8.300859
v 6.984251 0.049793 -6.964954
v 7.161249 0.902780 -5.835383
v 7.296772 2.067280 -5.022712
v 7.377552 3.429296 -4.606497
v 7.395679 4.855510 -4.627472
v 7.349380 6.206312 -5.083594
v 7.243187 7.349473 -5.930202
v 7.087496 8.173101 -7.084437
v 6.897547 8.596565 -8.433306
v 6.691933 8.578419 -9.844774
v -2.531972 8.254423 -9.868020
v -2.708973 7.401434 -10.997593
v -2.844495 6.236936 -11.810265
v -2.925275 4.874920 -12.226479
v -2.943401 3.448706 -12.205503
v -2.897103 2.097904 -11.749382
v -2.790910 0.954741 -10.902773
v -2.635220 0.131113 -9.748537
v -2.445270 -0.292351 -8.399669
v -2.239655 -0.274205 -6.988199
v -2.038502 0.183779 -5.652295
v -1.861500 1.036766 -4.522721
v -1.725977 2.201266 -3.710052
v -1.645199 3.563282 -3.293835
v -1.627073 4.989496 -3.314813
v -1.673370 6.340298 -3.770931
v -1.779562 7.483459 -4.617542
v -1.935254 8.307087 -5.771776
v -2.125205 8.730552 -7.120645
v -2.330819 8.712404 -8.532114
v -2.507298 7.850881 -9.657231
v -2.666599 7.083189 -10.673849
v -2.788570 6.035142 -11.405251
v -2.861272 4.809326 -11.779848
v -2.877585 3.525734 -11.760967
v -2.835917 2.310013 -11.350461
v -2.740343 1.281165 -10.588509
v -2.600221 0.539901 -9.549700
v -2.429266 0.158780 -8.335715
v -2.244212 0.175116 -7.065395
v -2.063176 0.587297 -5.863081
v -1.903875 1.354990 -4.846465
v -1.781903 2.403037 -4.115062
v -1.709202 3.628853 -3.740467
v -1.692890 4.912445 -3.759347
v -1.734557 6.128166 -4.169853
v -1.830131 7.157013 -4.931803
v -1.970253 7.898275 -5.970613
v -2.141208 8.279393 -7.184596
v -2.326261 8.263061 -8.454918
vt 0.700691 0.775241
vt 0.700691 0.742360
vt 0.700691 0.707784
vt 0.700691 0.674901
vt 0.675032 0.646928
vt 0.649851 0.626604
vt 0.615141 0.615917
vt 0.578644 0.615916
vt 0.543934 0.626598
vt 0.518749 0.646919
vt 0.493080 0.674889
vt 0.493080 0.707771
vt 0.493080 0.742346
vt 0.493080 0.775229
vt 0.518739 0.803202
vt 0.543921 0.823527
vt 0.578631 0.834213
vt 0.615127 0.834215
vt 0.649838 0.823533
vt 0.675023 0.803212
vt 0.712230 0.780819
vt 0.712230 0.744282
vt 0.712230 0.705864
vt 0.712230 0.669325
vt 0.683719 0.638243
vt 0.649851 0.615659
vt 0.615141 0.603785
vt 0.578644 0.603783
vt 0.543934 0.615652
vt 0.510063 0.638232
vt 0.481541 0.669312
vt 0.481541 0.705849
vt 0.481541 0.744267
vt 0.481541 0.780806
vt 0.510052 0.811888
vt 0.543921 0.834472
vt 0.578631 0.846346
vt 0.615127 0.846348
vt 0.649838 0.834479
vt 0.683709 0.811899
vt 0.440378 0.000000
vt 0.440378 0.027102
vt 0.440378 0.054203
vt 0.440378 0.081305
vt 0.440378 0.108406
vt 0.440378 0.135508
vt 0.440378 0.162609
vt 0.440378 0.189711
vt 0.440378 0.216812
vt 0.440378 0.243914
vt 0.440378 0.271016
vt 0.440378 0.298117
vt 0.440378 0.325219
vt 0.440378 0.352320
vt 0.440378 0.379422
vt 0.440378 0.406523
vt 0.440378 0.433625
vt 0.440378 0.460726
vt 0.440378 0.487828
vt 0.440378 0.514929
vt 0.440378 0.542031
vt 0.267132 0.000019
vt 0.267132 0.027120
vt 0.267132 0.054222
vt 0.267132 0.081323
vt 0.267132 0.108425
vt 0.267132 0.135526
vt 0.267132 0.162628
vt 0.267132 0.189729
vt 0.267132 0.216831
vt 0.267132 0.243933
vt 0.267132 0.271034
vt 0.267132 0.298136
vt 0.267132 0.325237
vt 0.267132 0.352339
vt 0.267132 0.379440
vt 0.267132 0.406542
vt 0.267132 0.433643
vt 0.267132 0.460745
vt 0.267132 0.487846
vt 0.267132 0.514948
vt 0.267132 0.542050
vt 0.230684 0.798515
vt 0.230684 0.761978
vt 0.230684 0.723561
vt 0.230684 0.687024
vt 0.202168 0.655944
vt 0.168300 0.633363
vt 0.133591 0.621491
vt 0.097094 0.621491
vt 0.062384 0.633362
vt 0.028517 0.655943
vt 0.000000 0.687023
vt 0.000000 0.723560
vt 0.000000 0.761977
vt 0.000000 0.798514
vt 0.028516 0.829594
vt 0.062383 0.852175
vt 0.097093 0.864047
vt 0.133590 0.864047
vt 0.168300 0.852175
vt 0.202167 0.829594
vt 0.219150 0.792940
vt 0.219150 0.760057
vt 0.219150 0.725482
vt 0.219150 0.692598
vt 0.193485 0.664627
vt 0.168300 0.644303
vt 0.133591 0.633619
vt 0.097094 0.633619
vt 0.062384 0.644303
vt 0.037199 0.664626
vt 0.011534 0.692598
vt 0.011534 0.725481
vt 0.011534 0.760056
vt 0.011534 0.792939
vt 0.037199 0.820911
vt 0.062383 0.841234
vt 0.097093 0.851919
vt 0.133590 0.851919
vt 0.168300 0.841235
vt 0.193484 0.820912
vt 0.615869 0.268305
vt 0.615869 0.292696
vt 0.442877 0.292719
vt 0.442877 0.268327
vt 0.615869 0.317088
vt 0.442877 0.317110
vt 0.615869 0.341479
vt 0.442877 0.341502
vt 0.615869 0.365870
vt 0.442877 0.365893
vt 0.615869 0.390262
vt 0.442877 0.390284
vt 0.615869 0.414653
vt 0.442877 0.414676
vt 0.615869 0.439045
vt 0.442877 0.439067
vt 0.615869 0.463436
vt 0.442877 0.463459
vt 0.615869 0.000000
vt 0.442877 0.487850
vt 0.615869 0.024391
vt 0.442877 0.024414
vt 0.615869 0.048783
vt 0.442877 0.048805
vt 0.615869 0.073174
vt 0.442877 0.073196
vt 0.615869 0.097565
vt 0.442877 0.097588
vt 0.615869 0.121957
vt 0.442877 0.121979
vt 0.615869 0.146348
vt 0.442877 0.146371
vt 0.615869 0.170740
vt 0.442877 0.170762
vt 0.615869 0.195131
vt 0.442877 0.195153
vt 0.615869 0.219522
vt 0.442877 0.219545
vt 0.615869 0.243914
vt 0.442877 0.243936
vt 0.615869 0.487827
vt 0.442877 0.000023
vn 0.990635 -0.040584 -0.130364
vn 0.991771 -0.035110 -0.123115
vn 0.991771 -0.035110 -0.123115
vn 0.990635 -0.040584 -0.130364
vn 0.992641 -0.027637 -0.117900
vn 0.992641 -0.027637 -0.117900
vn 0.993160 -0.018896 -0.115227
vn 0.993159 -0.018896 -0.115227
vn 0.993276 -0.009743 -0.115361
vn 0.993276 -0.009743 -0.115361
vn 0.992979 -0.001073 -0.118288
vn 0.992979 -0.001073 -0.118288
vn 0.992297 0.006264 -0.123722
vn 0.992297 0.006263 -0.123722
vn 0.991298 0.011551 -0.131129
vn 0.991298 0.011551 -0.131129
vn 0.990079 0.014269 -0.139786
vn 0.990079 0.014269 -0.139786
vn 0.988759 0.014150 -0.148845
vn 0.988759 0.014150 -0.148845
vn 0.987468 0.011211 -0.157418
vn 0.987468 0.011211 -0.157418
vn 0.986333 0.005736 -0.164666
vn 0.986333 0.005736 -0.164666
vn 0.985463 -0.001739 -0.169881
vn 0.985463 -0.001739 -0.169881
vn 0.984944 -0.010479 -0.172554
vn 0.984944 -0.010479 -0.172554
vn 0.984828 -0.019631 -0.172420
vn 0.984828 -0.019632 -0.172420
vn 0.985125 -0.028300 -0.169492
vn 0.985125 -0.028300 -0.169492
vn 0.985807 -0.035635 -0.164058
vn 0.985807 -0.035635 -0.164058
vn 0.986806 -0.040920 -0.156650
vn 0.986806 -0.040920 -0.156650
vn 0.988025 -0.043638 -0.147994
vn 0.988025 -0.043638 -0.147994
vn 0.989344 -0.043522 -0.138936
vn 0.989344 -0.043522 -0.138936
vn -0.054116 0.885063 -0.462315
vn -0.092938 0.697978 -0.710063
vn -0.092938 0.697978 -0.710063
vn -0.054116 0.885063 -0.462315
vn -0.122662 0.442570 -0.888305
vn -0.122662 0.442569 -0.888305
vn -0.140379 0.143840 -0.979594
vn -0.140379 0.143840 -0.979594
vn -0.144354 -0.168970 -0.974993
vn -0.144354 -0.168970 -0.974993
vn -0.134200 -0.465240 -0.874953
vn -0.134200 -0.465240 -0.874953
vn -0.110909 -0.715969 -0.689266
vn -0.110909 -0.715969 -0.689266
vn -0.076761 -0.896614 -0.436110
vn -0.076761 -0.896614 -0.436110
vn -0.035100 -0.989492 -0.140263
vn -0.035100 -0.989492 -0.140263
vn 0.009998 -0.985512 0.169312
vn 0.009998 -0.985512 0.169313
vn 0.054116 -0.885063 0.462315
vn 0.054116 -0.885063 0.462315
vn 0.092938 -0.697978 0.710063
vn 0.092938 -0.697977 0.710063
vn 0.122662 -0.442569 0.888305
vn 0.122662 -0.442569 0.888305
vn 0.140379 -0.143840 0.979594
vn 0.140379 -0.143840 0.979594
vn 0.144354 0.168970 0.974993
vn 0.144354 0.168970 0.974993
vn 0.134200 0.465240 0.874953
vn 0.134200 0.465240 0.874953
vn 0.110909 0.715969 0.689266
vn 0.110909 0.715969 0.689266
vn 0.076761 0.896614 0.436110
vn 0.076761 0.896613 0.436110
vn 0.035100 0.989492 0.140263
vn 0.035100 0.989492 0.140263
vn -0.009997 0.985512 -0.169312
vn -0.009997 0.985512 -0.169312
vn -0.989476 0.014693 0.143952
vn -0.989476 0.014694 0.143952
vn -0.989476 0.014694 0.143952
vn -0.989476 0.014693 0.143952
vn -0.989476 0.014695 0.143951
vn -0.989476 0.014695 0.143951
vn -0.989476 0.014694 0.143951
vn -0.989476 0.014694 0.143951
vn -0.989476 0.014693 0.143952
vn -0.989476 0.014693 0.143952
vn -0.989476 0.014693 0.143952
vn -0.989476 0.014693 0.143952
vn -0.989476 0.014693 0.143952
vn -0.989476 0.014693 0.143952
vn -0.989476 0.014694 0.143952
vn -0.989476 0.014694 0.143952
vn -0.989475 0.014695 0.143953
vn -0.989475 0.014695 0.143953
vn -0.989476 0.014694 0.143952
vn -0.989476 0.014694 0.143952
vn -0.989475 0.014692 0.143953
vn -0.989475 0.014692 0.143953
vn -0.989475 0.014692 0.143954
vn -0.989475 0.014692 0.143954
vn -0.989475 0.014693 0.143953
vn -0.989475 0.014693 0.143953
vn -0.989476 0.014693 0.143952
vn -0.989476 0.014693 0.143952
vn -0.989476 0.014693 0.143952
vn -0.989476 0.014693 0.143952
vn -0.989475 0.014695 0.143953
vn -0.989475 0.014695 0.143953
vn -0.989475 0.014695 0.143954
vn -0.989475 0.014695 0.143954
vn -0.989475 0.014694 0.143953
vn -0.989475 0.014694 0.143953
vn -0.989476 0.014693 0.143952
vn -0.989476 0.014693 0.143952
vn -0.989476 0.014693 0.143952
vn -0.989476 0.014693 0.143952
vn 0.054116 -0.885063 0.462315
vn 0.092937 -0.697976 0.710065
vn 0.092937 -0.697976 0.710065
vn 0.054116 -0.885063 0.462315
vn 0.122661 -0.442572 0.888304
vn 0.122661 -0.442572 0.888304
vn 0.140379 -0.143843 0.979593
vn 0.140379 -0.143843 0.979593
vn 0.144355 0.168970 0.974993
vn 0.144355 0.168970 0.974993
vn 0.134200 0.465242 0.874952
vn 0.134200 0.465242 0.874952
vn 0.110909 0.715970 0.689265
vn 0.110909 0.715970 0.689265
vn 0.076761 0.896613 0.436111
vn 0.076761 0.896613 0.436111
vn 0.035099 0.989492 0.140262
vn 0.035099 0.989492 0.140262
vn -0.009998 0.985511 -0.169315
vn -0.009998 0.985511 -0.169315
vn -0.054117 0.885063 -0.462315
vn -0.054117 0.885063 -0.462315
vn -0.092938 0.697979 -0.710062
vn -0.092938 0.697979 -0.710062
vn -0.122662 0.442571 -0.888304
vn -0.122662 0.442571 -0.888305
vn -0.140379 0.143839 -0.979594
vn -0.140378 0.143839 -0.979594
vn -0.144354 -0.168970 -0.974993
vn -0.144354 -0.168970 -0.974993
vn -0.134200 -0.465241 -0.874952
vn -0.134200 -0.465241 -0.874952
vn -0.110909 -0.715970 -0.689265
vn -0.110909 -0.715970 -0.689265
vn -0.076762 -0.896613 -0.436110
vn -0.076762 -0.896613 -0.436110
vn -0.035100 -0.989492 -0.140264
vn -0.035100 -0.989492 -0.140264
vn 0.009997 -0.985512 0.169311
vn 0.009997 -0.985512 0.169311
s 1
f 1/1/1 2/2/2 22/22/3 21/21/4
f 2/2/2 3/3/5 23/23/6 22/22/3
f 3/3/5 4/4/7 24/24/8 23/23/6
f 4/4/7 5/5/9 25/25/10 24/24/8
f 5/5/9 6/6/11 26/26/12 25/25/10
f 6/6/11 7/7/13 27/27/14 26/26/12
f 7/7/13 8/8/15 28/28/16 27/27/14
f 8/8/15 9/9/17 29/29/18 28/28/16
f 9/9/17 10/10/19 30/30/20 29/29/18
f 10/10/19 11/11/21 31/31/22 30/30/20
f 11/11/21 12/12/23 32/32/24 31/31/22
f 12/12/23 13/13/25 33/33/26 32/32/24
f 13/13/25 14/14/27 34/34/28 33/33/26
f 14/14/27 15/15/29 35/35/30 34/34/28
f 15/15/29 16/16/31 36/36/32 35/35/30
f 16/16/31 17/17/33 37/37/34 36/36/32
f 17/17/33 18/18/35 38/38/36 37/37/34
f 18/18/35 19/19/37 39/39/38 38/38/36
f 19/19/37 20/20/39 40/40/40 39/39/38
f 20/20/39 1/1/1 21/21/4 40/40/40
s 2
f 21/41/41 22/42/42 42/63/43 41/62/44
f 22/42/42 23/43/45 43/64/46 42/63/43
f 23/43/45 24/44/47 44/65/48 43/64/46
f 24/44/47 25/45/49 45/66/50 44/65/48
f 25/45/49 26/46/51 46/67/52 45/66/50
f 26/46/51 27/47/53 47/68/54 46/67/52
f 27/47/53 28/48/55 48/69/56 47/68/54
f 28/48/55 29/49/57 49/70/58 48/69/56
f 29/49/57 30/50/59 50/71/60 49/70/58
f 30/50/59 31/51/61 51/72/62 50/71/60
f 31/51/61 32/52/63 52/73/64 51/72/62
f 32/52/63 33/53/65 53/74/66 52/73/64
f 33/53/65 34/54/67 54/75/68 53/74/66
f 34/54/67 35/55/69 55/76/70 54/75/68
f 35/55/69 36/56/71 56/77/72 55/76/70
f 36/56/71 37/57/73 57/78/74 56/77/72
f 37/57/73 38/58/75 58/79/76 57/78/74
f 38/58/75 39/59/77 59/80/78 58/79/76
f 39/59/77 40/60/79 60/81/80 59/80/78
f 40/60/79 21/61/41 41/82/44 60/81/80
s 3
f 41/101/81 42/100/82 62/120/83 61/121/84
f 42/100/82 43/99/85 63/119/86 62/120/83
f 43/99/85 44/98/87 64/118/88 63/119/86
f 44/98/87 45/97/89 65/117/90 64/118/88
f 45/97/89 46/96/91 66/116/92 65/117/90
f 46/96/91 47/95/93 67/115/94 66/116/92
f 47/95/93 48/94/95 68/114/96 67/115/94
f 48/94/95 49/93/97 69/113/98 68/114/96
f 49/93/97 50/92/99 70/112/100 69/113/98
f 50/92/99 51/91/101 71/111/102 70/112/100
f 51/91/101 52/90/103 72/110/104 71/111/102
f 52/90/103 53/89/105 73/109/106 72/110/104
f 53/89/105 54/88/107 74/108/108 73/109/106
f 54/88/107 55/87/109 75/107/110 74/108/108
f 55/87/109 56/86/111 76/106/112 75/107/110
f 56/86/111 57/85/113 77/105/114 76/106/112
f 57/85/113 58/84/115 78/104/116 77/105/114
f 58/84/115 59/83/117 79/103/118 78/104/116
f 59/83/117 60/102/119 80/122/120 79/103/118
f 60/102/119 41/101/81 61/121/84 80/122/120
s 4
f 61/123/121 62/124/122 2/125/123 1/126/124
f 62/124/122 63/127/125 3/128/126 2/125/123
f 63/127/125 64/129/127 4/130/128 3/128/126
f 64/129/127 65/131/129 5/132/130 4/130/128
f 65/131/129 66/133/131 6/134/132 5/132/130
f 66/133/131 67/135/133 7/136/134 6/134/132
f 67/135/133 68/137/135 8/138/136 7/136/134
f 68/137/135 69/139/137 9/140/138 8/138/136
f 69/139/137 70/163/139 10/142/140 9/140/138
f 70/141/139 71/143/141 11/144/142 10/164/140
f 71/143/141 72/145/143 12/146/144 11/144/142
f 72/145/143 73/147/145 13/148/146 12/146/144
f 73/147/145 74/149/147 14/150/148 13/148/146
f 74/149/147 75/151/149 15/152/150 14/150/148
f 75/151/149 76/153/151 16/154/152 15/152/150
f 76/153/151 77/155/153 17/156/154 16/154/152
f 77/155/153 78/157/155 18/158/156 17/156/154
f 78/157/155 79/159/157 19/160/158 18/158/156
f 79/159/157 80/161/159 20/162/160 19/160/158
f 80/161/159 61/123/121 1/126/124 20/162/160
