# This file uses centimeters as units for non-parametric coordinates.

mtllib Wood.mtl
g default
v -13.404684 -7.411265 -16.295639
v -11.194978 -7.411265 -16.295639
v -8.985271 -7.411265 -16.295639
v -6.775564 -7.411265 -16.295639
v -4.565858 -7.411265 -16.295639
v -2.356151 -7.411265 -16.295639
v -0.146444 -7.411265 -16.295639
v -13.404684 -6.389256 -16.295639
v -11.194978 -6.389256 -16.295639
v -8.985271 -6.389256 -16.295639
v -6.775564 -6.389256 -16.295639
v -4.565858 -6.389256 -16.295639
v -2.356151 -6.389256 -16.295639
v -0.146444 -6.389256 -16.295639
v -13.404684 -5.367248 -16.295639
v -11.194978 -5.367248 -16.295639
v -8.985271 -5.367248 -16.295639
v -6.775564 -5.367248 -16.295639
v -4.565858 -5.367248 -16.295639
v -2.356151 -5.367248 -16.295639
v -0.146444 -5.367248 -16.295639
v -13.404684 -5.367248 -17.336809
v -11.194978 -5.367248 -17.336809
v -8.985271 -5.367248 -17.336809
v -6.775564 -5.367248 -17.336809
v -4.565858 -5.367248 -17.336809
v -2.356151 -5.367248 -17.336809
v -0.146444 -5.367248 -17.336809
v -13.404684 -6.389256 -17.336809
v -11.194978 -6.389256 -17.336809
v -8.985271 -6.389256 -17.336809
v -6.775564 -6.389256 -17.336809
v -4.565858 -6.389256 -17.336809
v -2.356151 -6.389256 -17.336809
v -0.146444 -6.389256 -17.336809
v -13.404684 -7.411265 -17.336809
v -11.194978 -7.411265 -17.336809
v -8.985271 -7.411265 -17.336809
v -6.775564 -7.411265 -17.336809
v -4.565858 -7.411265 -17.336809
v -2.356151 -7.411265 -17.336809
v -0.146444 -7.411265 -17.336809
v -13.404684 -5.367248 -16.038410
v -11.194978 -5.367248 -16.038410
v -11.194978 -4.345239 -16.038410
v -13.404684 -4.345239 -16.038410
v -8.985271 -5.367248 -16.038410
v -8.985271 -4.345239 -16.038410
v -6.775564 -5.367248 -16.038410
v -6.775564 -4.345239 -16.038410
v -4.565858 -5.367248 -16.038410
v -4.565858 -4.345239 -16.038410
v -2.356151 -5.367248 -16.038410
v -2.356151 -4.345239 -16.038410
v -0.146444 -5.367248 -16.038410
v -0.146444 -4.345239 -16.038410
v -11.194978 -4.345239 -17.594038
v -13.404684 -4.345239 -17.594038
v -8.985271 -4.345239 -17.594038
v -6.775564 -4.345239 -17.594038
v -4.565858 -4.345239 -17.594038
v -2.356151 -4.345239 -17.594038
v -0.146444 -4.345239 -17.594038
v -11.194978 -5.367248 -17.594038
v -13.404684 -5.367248 -17.594038
v -8.985271 -5.367248 -17.594038
v -6.775564 -5.367248 -17.594038
v -4.565858 -5.367248 -17.594038
v -2.356151 -5.367248 -17.594038
v -0.146444 -5.367248 -17.594038
vt 0.193992 0.853622
vt 0.226379 0.852988
vt 0.259713 0.852936
vt 0.293259 0.853644
vt 0.326565 0.855051
vt 0.359157 0.856939
vt 0.390571 0.858847
vt 0.194376 0.868932
vt 0.226657 0.868099
vt 0.259586 0.868075
vt 0.292648 0.868787
vt 0.325481 0.870179
vt 0.357803 0.872029
vt 0.389583 0.874137
vt 0.192918 0.884997
vt 0.226437 0.883093
vt 0.259241 0.883221
vt 0.292117 0.883984
vt 0.324791 0.885379
vt 0.357250 0.887052
vt 0.390779 0.889910
vt 0.192222 0.901266
vt 0.225611 0.901758
vt 0.258810 0.902065
vt 0.291697 0.902963
vt 0.324483 0.904345
vt 0.357531 0.905849
vt 0.391332 0.906027
vt 0.192546 0.925062
vt 0.225544 0.924481
vt 0.258462 0.924950
vt 0.291156 0.925972
vt 0.323865 0.927227
vt 0.356866 0.928457
vt 0.389710 0.929840
vt 0.193020 0.944224
vt 0.225813 0.943216
vt 0.258443 0.943801
vt 0.290872 0.944923
vt 0.323361 0.946117
vt 0.355995 0.947295
vt 0.388558 0.948932
vt 0.193375 0.959237
vt 0.226053 0.958151
vt 0.258297 0.958929
vt 0.290464 0.960124
vt 0.322786 0.961284
vt 0.355244 0.962414
vt 0.387791 0.963976
vt 0.193699 0.974041
vt 0.226064 0.973127
vt 0.257821 0.974130
vt 0.289890 0.975348
vt 0.322206 0.976468
vt 0.354606 0.977531
vt 0.387162 0.978936
vt 0.194076 0.989030
vt 0.225302 0.988571
vt 0.256902 0.989565
vt 0.289185 0.990783
vt 0.321761 0.991882
vt 0.354235 0.992906
vt 0.386695 0.994259
vt 0.404692 0.858512
vt 0.403842 0.872323
vt 0.404117 0.884093
vt 0.414258 0.894466
vt 0.178588 0.853417
vt 0.179311 0.867571
vt 0.179473 0.879715
vt 0.170521 0.892345
vt 0.196239 0.886303
vt 0.226291 0.886951
vt 0.259163 0.887027
vt 0.292035 0.887807
vt 0.324717 0.889199
vt 0.357159 0.890749
vt 0.387487 0.891351
vt 0.225717 0.939452
vt 0.192922 0.940399
vt 0.258413 0.940006
vt 0.290909 0.941106
vt 0.323454 0.942307
vt 0.356169 0.943498
vt 0.388791 0.945122
vt 0.407409 0.882659
vt 0.176151 0.878410
vn 0.000000 0.000000 1.000000
vn 0.000000 0.000000 1.000000
vn 0.000000 0.000000 1.000000
vn 0.000000 0.000000 1.000000
vn 0.000000 0.000000 1.000000
vn 0.000000 0.000000 1.000000
vn 0.000000 0.000000 1.000000
vn 0.000000 0.000000 1.000000
vn 0.000000 0.000000 1.000000
vn 0.000000 0.000000 1.000000
vn 0.000000 0.000000 1.000000
vn 0.000000 0.000000 1.000000
vn 0.000000 0.000000 1.000000
vn 0.000000 0.000000 1.000000
vn 0.000000 0.000000 1.000000
vn 0.000000 0.000000 1.000000
vn 0.000000 0.000000 1.000000
vn 0.000000 0.000000 1.000000
vn 0.000000 0.000000 1.000000
vn 0.000000 0.000000 1.000000
vn 0.000000 0.000000 1.000000
vn 0.000000 0.000000 1.000000
vn 0.000000 0.000000 1.000000
vn 0.000000 0.000000 1.000000
vn 0.000000 0.000000 1.000000
vn 0.000000 0.000000 1.000000
vn 0.000000 0.000000 1.000000
vn 0.000000 0.000000 1.000000
vn 0.000000 0.000000 1.000000
vn 0.000000 0.000000 1.000000
vn 0.000000 0.000000 1.000000
vn 0.000000 0.000000 1.000000
vn 0.000000 0.000000 1.000000
vn 0.000000 0.000000 1.000000
vn 0.000000 0.000000 1.000000
vn 0.000000 1.000000 0.000000
vn 0.000000 1.000000 0.000000
vn 0.000000 1.000000 0.000000
vn 0.000000 1.000000 0.000000
vn 0.000000 1.000000 0.000000
vn 0.000000 1.000000 0.000000
vn 0.000000 1.000000 0.000000
vn 0.000000 1.000000 0.000000
vn 0.000000 1.000000 0.000000
vn 0.000000 1.000000 0.000000
vn 0.000000 1.000000 0.000000
vn 0.000000 1.000000 0.000000
vn 0.000000 1.000000 0.000000
vn 0.000000 1.000000 0.000000
vn 0.000000 0.000000 -1.000000
vn 0.000000 0.000000 -1.000000
vn 0.000000 0.000000 -1.000000
vn 0.000000 0.000000 -1.000000
vn 0.000000 0.000000 -1.000000
vn 0.000000 0.000000 -1.000000
vn 0.000000 0.000000 -1.000000
vn 0.000000 0.000000 -1.000000
vn 0.000000 0.000000 -1.000000
vn 0.000000 0.000000 -1.000000
vn 0.000000 0.000000 -1.000000
vn 0.000000 0.000000 -1.000000
vn 0.000000 0.000000 -1.000000
vn 0.000000 0.000000 -1.000000
vn 0.000000 0.000000 -1.000000
vn 0.000000 0.000000 -1.000000
vn 0.000000 0.000000 -1.000000
vn 0.000000 0.000000 -1.000000
vn 0.000000 0.000000 -1.000000
vn 0.000000 0.000000 -1.000000
vn 0.000000 0.000000 -1.000000
vn 0.000000 0.000000 -1.000000
vn 0.000000 0.000000 -1.000000
vn 0.000000 0.000000 -1.000000
vn 0.000000 0.000000 -1.000000
vn 0.000000 0.000000 -1.000000
vn 0.000000 0.000000 -1.000000
vn 0.000000 0.000000 -1.000000
vn 0.000000 0.000000 -1.000000
vn 0.000000 0.000000 -1.000000
vn 0.000000 0.000000 -1.000000
vn 0.000000 0.000000 -1.000000
vn 0.000000 0.000000 -1.000000
vn 0.000000 0.000000 -1.000000
vn 0.000000 0.000000 -1.000000
vn 0.000000 -1.000000 0.000000
vn 0.000000 -1.000000 0.000000
vn 0.000000 -1.000000 0.000000
vn 0.000000 -1.000000 0.000000
vn 0.000000 -1.000000 0.000000
vn 0.000000 -1.000000 0.000000
vn 0.000000 -1.000000 0.000000
vn 0.000000 -1.000000 0.000000
vn 0.000000 -1.000000 0.000000
vn 0.000000 -1.000000 0.000000
vn 0.000000 -1.000000 0.000000
vn 0.000000 -1.000000 0.000000
vn 0.000000 -1.000000 0.000000
vn 0.000000 -1.000000 0.000000
vn 1.000000 0.000000 0.000000
vn 1.000000 0.000000 0.000000
vn 1.000000 0.000000 0.000000
vn 1.000000 0.000000 0.000000
vn 1.000000 0.000000 0.000000
vn 1.000000 0.000000 0.000000
vn 1.000000 0.000000 0.000000
vn 1.000000 0.000000 0.000000
vn 1.000000 0.000000 0.000000
vn 1.000000 0.000000 0.000000
vn -1.000000 0.000000 0.000000
vn -1.000000 0.000000 0.000000
vn -1.000000 0.000000 0.000000
vn -1.000000 0.000000 0.000000
vn -1.000000 0.000000 0.000000
vn -1.000000 0.000000 0.000000
vn -1.000000 0.000000 0.000000
vn -1.000000 0.000000 0.000000
vn -1.000000 0.000000 0.000000
vn -1.000000 0.000000 0.000000
vn 0.000000 -1.000000 0.000000
vn 0.000000 -1.000000 0.000000
vn 0.000000 -1.000000 0.000000
vn 0.000000 -1.000000 0.000000
vn 0.000000 -1.000000 0.000000
vn 0.000000 -1.000000 0.000000
vn 0.000000 -1.000000 0.000000
vn 0.000000 -1.000000 0.000000
vn 0.000000 -1.000000 0.000000
vn 0.000000 -1.000000 0.000000
vn 0.000000 -1.000000 0.000000
vn 0.000000 -1.000000 0.000000
vn 0.000000 -1.000000 0.000000
vn 0.000000 -1.000000 0.000000
vn 0.000000 -1.000000 0.000000
vn 0.000000 -1.000000 0.000000
vn 0.000000 -1.000000 0.000000
vn 0.000000 -1.000000 0.000000
vn 0.000000 -1.000000 0.000000
vn 0.000000 -1.000000 0.000000
vn 0.000000 -1.000000 0.000000
vn 0.000000 -1.000000 0.000000
vn 0.000000 -1.000000 0.000000
vn 0.000000 -1.000000 0.000000
vn 0.000000 -1.000000 0.000000
vn 0.000000 -1.000000 0.000000
vn 0.000000 -1.000000 0.000000
vn 0.000000 -1.000000 0.000000
vn 0.000000 -1.000000 0.000000
vn 0.000000 -1.000000 0.000000
vn 0.000000 -1.000000 0.000000
vn 0.000000 -1.000000 0.000000
vn 0.000000 -1.000000 0.000000
vn 0.000000 -1.000000 0.000000
vn 0.000000 -1.000000 0.000000
vn 0.000000 -1.000000 0.000000
vn 0.000000 -1.000000 0.000000
vn 0.000000 -1.000000 0.000000
vn 0.000000 -1.000000 0.000000
vn 0.000000 -1.000000 0.000000
vn 0.000000 -1.000000 0.000000
vn 0.000000 -1.000000 0.000000
vn 0.000000 -1.000000 0.000000
vn 0.000000 -1.000000 0.000000
vn 0.000000 -1.000000 0.000000
vn 0.000000 -1.000000 0.000000
vn 0.000000 -1.000000 0.000000
vn 0.000000 -1.000000 0.000000
vn 0.000000 0.000000 0.000000
vn 0.000000 0.000000 0.000000
vn 0.000000 0.000000 0.000000
vn 0.000000 0.000000 0.000000
vn 0.000000 0.000000 0.000000
vn 0.000000 0.000000 0.000000
vn 0.000000 0.000000 0.000000
vn 0.000000 0.000000 0.000000
s 1
usemtl FANTOEXPORTer:lambert1SG
f 1/1/1 2/2/2 9/9/3 8/8/4
f 2/2/2 3/3/5 10/10/6 9/9/3
f 3/3/5 4/4/7 11/11/8 10/10/6
f 4/4/7 5/5/9 12/12/10 11/11/8
f 5/5/9 6/6/11 13/13/12 12/12/10
f 6/6/11 7/7/13 14/14/14 13/13/12
f 8/8/4 9/9/3 16/16/15 15/15/16
f 9/9/3 10/10/6 17/17/17 16/16/15
f 10/10/6 11/11/8 18/18/18 17/17/17
f 11/11/8 12/12/10 19/19/19 18/18/18
f 12/12/10 13/13/12 20/20/20 19/19/19
f 13/13/12 14/14/14 21/21/21 20/20/20
s 2
f 43/72/22 44/73/23 45/23/24 46/22/25
f 44/73/23 47/74/26 48/24/27 45/23/24
f 47/74/26 49/75/28 50/25/29 48/24/27
f 49/75/28 51/76/30 52/26/31 50/25/29
f 51/76/30 53/77/32 54/27/33 52/26/31
f 53/77/32 55/78/34 56/28/35 54/27/33
s 3
f 46/22/36 45/23/37 57/30/38 58/29/39
f 45/23/37 48/24/40 59/31/41 57/30/38
f 48/24/40 50/25/42 60/32/43 59/31/41
f 50/25/42 52/26/44 61/33/45 60/32/43
f 52/26/44 54/27/46 62/34/47 61/33/45
f 54/27/46 56/28/48 63/35/49 62/34/47
s 4
f 58/29/50 57/30/51 64/79/52 65/80/53
f 57/30/51 59/31/54 66/81/55 64/79/52
f 59/31/54 60/32/56 67/82/57 66/81/55
f 60/32/56 61/33/58 68/83/59 67/82/57
f 61/33/58 62/34/60 69/84/61 68/83/59
f 62/34/60 63/35/62 70/85/63 69/84/61
s 5
f 22/36/64 23/37/65 30/44/66 29/43/67
f 23/37/65 24/38/68 31/45/69 30/44/66
f 24/38/68 25/39/70 32/46/71 31/45/69
f 25/39/70 26/40/72 33/47/73 32/46/71
f 26/40/72 27/41/74 34/48/75 33/47/73
f 27/41/74 28/42/76 35/49/77 34/48/75
f 29/43/67 30/44/66 37/51/78 36/50/79
f 30/44/66 31/45/69 38/52/80 37/51/78
f 31/45/69 32/46/71 39/53/81 38/52/80
f 32/46/71 33/47/73 40/54/82 39/53/81
f 33/47/73 34/48/75 41/55/83 40/54/82
f 34/48/75 35/49/77 42/56/84 41/55/83
s 6
f 36/50/85 37/51/86 2/58/87 1/57/88
f 37/51/86 38/52/89 3/59/90 2/58/87
f 38/52/89 39/53/91 4/60/92 3/59/90
f 39/53/91 40/54/93 5/61/94 4/60/92
f 40/54/93 41/55/95 6/62/96 5/61/94
f 41/55/95 42/56/97 7/63/98 6/62/96
s 7
f 7/7/99 42/64/100 35/65/101 14/14/102
f 14/14/102 35/65/101 28/66/103 21/21/104
s off
f 55/78/105 70/86/106 63/67/107 56/28/108
s 8
f 36/68/109 1/1/110 8/8/111 29/69/112
f 29/69/112 8/8/111 15/15/113 22/70/114
s off
f 65/87/115 43/72/116 46/22/117 58/71/118
f 15/15/119 16/16/120 44/73/121 43/72/122
f 16/16/123 17/17/124 47/74/125 44/73/126
f 17/17/127 18/18/128 49/75/129 47/74/130
f 18/18/131 19/19/132 51/76/133 49/75/134
f 19/19/135 20/20/136 53/77/137 51/76/138
f 20/20/139 21/21/140 55/78/141 53/77/142
f 23/37/143 22/36/144 65/80/145 64/79/146
f 24/38/147 23/37/148 64/79/149 66/81/150
f 25/39/151 24/38/152 66/81/153 67/82/154
f 26/40/155 25/39/156 67/82/157 68/83/158
f 27/41/159 26/40/160 68/83/161 69/84/162
f 28/42/163 27/41/164 69/84/165 70/85/166
f 21/21/167 28/66/168 70/86/169 55/78/170
f 22/70/171 15/15/172 43/72/173 65/87/174
