# This file uses centimeters as units for non-parametric coordinates.

mtllib wood.mtl
g default
v -3.570920 -27.307249 -7.924629
v -1.361214 -27.307249 -7.924629
v 0.848494 -27.307249 -7.924629
v 3.058200 -27.307249 -7.924629
v 5.267906 -27.307249 -7.924629
v 7.477613 -27.307249 -7.924629
v 9.687320 -27.307249 -7.924629
v -3.570920 -26.285240 -7.924629
v -1.361214 -26.285240 -7.924629
v 0.848494 -26.285240 -7.924629
v 3.058200 -26.285240 -7.924629
v 5.267906 -26.285240 -7.924629
v 7.477613 -26.285240 -7.924629
v 9.687320 -26.285240 -7.924629
v -3.570920 -25.263233 -7.924629
v -1.361214 -25.263233 -7.924629
v 0.848494 -25.263233 -7.924629
v 3.058200 -25.263233 -7.924629
v 5.267906 -25.263233 -7.924629
v 7.477613 -25.263233 -7.924629
v 9.687320 -25.263233 -7.924629
v -3.570920 -25.263233 -8.965799
v -1.361214 -25.263233 -8.965799
v 0.848494 -25.263233 -8.965799
v 3.058200 -25.263233 -8.965799
v 5.267906 -25.263233 -8.965799
v 7.477613 -25.263233 -8.965799
v 9.687320 -25.263233 -8.965799
v -3.570920 -26.285240 -8.965799
v -1.361214 -26.285240 -8.965799
v 0.848494 -26.285240 -8.965799
v 3.058200 -26.285240 -8.965799
v 5.267906 -26.285240 -8.965799
v 7.477613 -26.285240 -8.965799
v 9.687320 -26.285240 -8.965799
v -3.570920 -27.307249 -8.965799
v -1.361214 -27.307249 -8.965799
v 0.848494 -27.307249 -8.965799
v 3.058200 -27.307249 -8.965799
v 5.267906 -27.307249 -8.965799
v 7.477613 -27.307249 -8.965799
v 9.687320 -27.307249 -8.965799
v -3.570920 -25.263233 -7.667400
v -1.361214 -25.263233 -7.667400
v -1.361214 -24.241224 -7.667400
v -3.570920 -24.241224 -7.667400
v 0.848494 -25.263233 -7.667400
v 0.848494 -24.241224 -7.667400
v 3.058200 -25.263233 -7.667400
v 3.058200 -24.241224 -7.667400
v 5.267906 -25.263233 -7.667400
v 5.267906 -24.241224 -7.667400
v 7.477613 -25.263233 -7.667400
v 7.477613 -24.241224 -7.667400
v 9.687320 -25.263233 -7.667400
v 9.687320 -24.241224 -7.667400
v -1.361214 -24.241224 -9.223028
v -3.570920 -24.241224 -9.223028
v 0.848494 -24.241224 -9.223028
v 3.058200 -24.241224 -9.223028
v 5.267906 -24.241224 -9.223028
v 7.477613 -24.241224 -9.223028
v 9.687320 -24.241224 -9.223028
v -1.361214 -25.263233 -9.223028
v -3.570920 -25.263233 -9.223028
v 0.848494 -25.263233 -9.223028
v 3.058200 -25.263233 -9.223028
v 5.267906 -25.263233 -9.223028
v 7.477613 -25.263233 -9.223028
v 9.687320 -25.263233 -9.223028
vt 0.698093 0.435712
vt 0.718089 0.428097
vt 0.738802 0.420633
vt 0.759818 0.413594
vt 0.780840 0.407044
vt 0.801525 0.400951
vt 0.821482 0.395133
vt 0.701746 0.445145
vt 0.721630 0.437430
vt 0.742099 0.430074
vt 0.762814 0.423146
vt 0.783539 0.416691
vt 0.804047 0.410635
vt 0.824277 0.404860
vt 0.704420 0.455459
vt 0.724836 0.446802
vt 0.745261 0.439568
vt 0.765872 0.432713
vt 0.786498 0.426295
vt 0.807052 0.420099
vt 0.828537 0.414400
vt 0.707615 0.465729
vt 0.728484 0.458591
vt 0.749195 0.451381
vt 0.769842 0.444607
vt 0.790535 0.438157
vt 0.811418 0.431723
vt 0.832474 0.424298
vt 0.713121 0.480452
vt 0.733509 0.472734
vt 0.754080 0.465687
vt 0.774635 0.459033
vt 0.795252 0.452521
vt 0.816045 0.445928
vt 0.836775 0.439466
vt 0.717688 0.492261
vt 0.737853 0.484323
vt 0.758271 0.477412
vt 0.778684 0.470879
vt 0.799151 0.464378
vt 0.819703 0.457835
vt 0.840315 0.451593
vt 0.721256 0.501516
vt 0.741332 0.493555
vt 0.761553 0.486850
vt 0.781820 0.480422
vt 0.802175 0.473937
vt 0.822607 0.467403
vt 0.843192 0.461118
vt 0.724758 0.510648
vt 0.744678 0.502864
vt 0.764646 0.496407
vt 0.784857 0.490015
vt 0.805199 0.483507
vt 0.825581 0.476944
vt 0.846136 0.470560
vt 0.728334 0.519884
vt 0.747647 0.512636
vt 0.767516 0.506209
vt 0.787860 0.499769
vt 0.808359 0.493190
vt 0.828778 0.486586
vt 0.849262 0.480191
vt 0.830187 0.391777
vt 0.832738 0.400554
vt 0.835533 0.407810
vt 0.844151 0.411999
vt 0.688470 0.439018
vt 0.692075 0.447658
vt 0.694883 0.455172
vt 0.692133 0.465021
vt 0.706776 0.455531
vt 0.725606 0.449233
vt 0.746061 0.441952
vt 0.766674 0.435108
vt 0.787304 0.428687
vt 0.807820 0.422418
vt 0.826812 0.416031
vt 0.736954 0.482004
vt 0.716775 0.489904
vt 0.757406 0.475059
vt 0.777856 0.468498
vt 0.798359 0.461989
vt 0.818965 0.455435
vt 0.839610 0.449172
vt 0.837260 0.406184
vt 0.692527 0.455101
vn 0.000000 0.000000 1.000000
vn 0.000000 0.000000 1.000000
vn 0.000000 0.000000 1.000000
vn 0.000000 0.000000 1.000000
vn 0.000000 0.000000 1.000000
vn 0.000000 0.000000 1.000000
vn 0.000000 0.000000 1.000000
vn 0.000000 0.000000 1.000000
vn 0.000000 0.000000 1.000000
vn 0.000000 0.000000 1.000000
vn 0.000000 0.000000 1.000000
vn 0.000000 0.000000 1.000000
vn 0.000000 0.000000 1.000000
vn 0.000000 0.000000 1.000000
vn 0.000000 0.000000 1.000000
vn 0.000000 0.000000 1.000000
vn 0.000000 0.000000 1.000000
vn 0.000000 0.000000 1.000000
vn 0.000000 0.000000 1.000000
vn 0.000000 0.000000 1.000000
vn 0.000000 0.000000 1.000000
vn 0.000000 0.000000 1.000000
vn 0.000000 0.000000 1.000000
vn 0.000000 0.000000 1.000000
vn 0.000000 0.000000 1.000000
vn 0.000000 0.000000 1.000000
vn 0.000000 0.000000 1.000000
vn 0.000000 0.000000 1.000000
vn 0.000000 0.000000 1.000000
vn 0.000000 0.000000 1.000000
vn 0.000000 0.000000 1.000000
vn 0.000000 0.000000 1.000000
vn 0.000000 0.000000 1.000000
vn 0.000000 0.000000 1.000000
vn 0.000000 0.000000 1.000000
vn 0.000000 1.000000 0.000000
vn 0.000000 1.000000 0.000000
vn 0.000000 1.000000 0.000000
vn 0.000000 1.000000 0.000000
vn 0.000000 1.000000 0.000000
vn 0.000000 1.000000 0.000000
vn 0.000000 1.000000 0.000000
vn 0.000000 1.000000 0.000000
vn 0.000000 1.000000 0.000000
vn 0.000000 1.000000 0.000000
vn 0.000000 1.000000 0.000000
vn 0.000000 1.000000 0.000000
vn 0.000000 1.000000 0.000000
vn 0.000000 1.000000 0.000000
vn 0.000000 0.000000 -1.000000
vn 0.000000 0.000000 -1.000000
vn 0.000000 0.000000 -1.000000
vn 0.000000 0.000000 -1.000000
vn 0.000000 0.000000 -1.000000
vn 0.000000 0.000000 -1.000000
vn 0.000000 0.000000 -1.000000
vn 0.000000 0.000000 -1.000000
vn 0.000000 0.000000 -1.000000
vn 0.000000 0.000000 -1.000000
vn 0.000000 0.000000 -1.000000
vn 0.000000 0.000000 -1.000000
vn 0.000000 0.000000 -1.000000
vn 0.000000 0.000000 -1.000000
vn 0.000000 0.000000 -1.000000
vn 0.000000 0.000000 -1.000000
vn 0.000000 0.000000 -1.000000
vn 0.000000 0.000000 -1.000000
vn 0.000000 0.000000 -1.000000
vn 0.000000 0.000000 -1.000000
vn 0.000000 0.000000 -1.000000
vn 0.000000 0.000000 -1.000000
vn 0.000000 0.000000 -1.000000
vn 0.000000 0.000000 -1.000000
vn 0.000000 0.000000 -1.000000
vn 0.000000 0.000000 -1.000000
vn 0.000000 0.000000 -1.000000
vn 0.000000 0.000000 -1.000000
vn 0.000000 0.000000 -1.000000
vn 0.000000 0.000000 -1.000000
vn 0.000000 0.000000 -1.000000
vn 0.000000 0.000000 -1.000000
vn 0.000000 0.000000 -1.000000
vn 0.000000 0.000000 -1.000000
vn 0.000000 0.000000 -1.000000
vn 0.000000 -1.000000 0.000000
vn 0.000000 -1.000000 0.000000
vn 0.000000 -1.000000 0.000000
vn 0.000000 -1.000000 0.000000
vn 0.000000 -1.000000 0.000000
vn 0.000000 -1.000000 0.000000
vn 0.000000 -1.000000 0.000000
vn 0.000000 -1.000000 0.000000
vn 0.000000 -1.000000 0.000000
vn 0.000000 -1.000000 0.000000
vn 0.000000 -1.000000 0.000000
vn 0.000000 -1.000000 0.000000
vn 0.000000 -1.000000 0.000000
vn 0.000000 -1.000000 0.000000
vn 1.000000 0.000000 0.000000
vn 1.000000 0.000000 0.000000
vn 1.000000 0.000000 0.000000
vn 1.000000 0.000000 0.000000
vn 1.000000 0.000000 0.000000
vn 1.000000 0.000000 0.000000
vn 1.000000 0.000000 0.000000
vn 1.000000 0.000000 0.000000
vn 1.000000 0.000000 0.000000
vn 1.000000 0.000000 0.000000
vn -1.000000 0.000000 0.000000
vn -1.000000 0.000000 0.000000
vn -1.000000 0.000000 0.000000
vn -1.000000 0.000000 0.000000
vn -1.000000 0.000000 0.000000
vn -1.000000 0.000000 0.000000
vn -1.000000 0.000000 0.000000
vn -1.000000 0.000000 0.000000
vn -1.000000 0.000000 0.000000
vn -1.000000 0.000000 0.000000
vn 0.000000 -1.000000 0.000000
vn 0.000000 -1.000000 0.000000
vn 0.000000 -1.000000 0.000000
vn 0.000000 -1.000000 0.000000
vn 0.000000 -1.000000 0.000000
vn 0.000000 -1.000000 0.000000
vn 0.000000 -1.000000 0.000000
vn 0.000000 -1.000000 0.000000
vn 0.000000 -1.000000 0.000000
vn 0.000000 -1.000000 0.000000
vn 0.000000 -1.000000 0.000000
vn 0.000000 -1.000000 0.000000
vn 0.000000 -1.000000 0.000000
vn 0.000000 -1.000000 0.000000
vn 0.000000 -1.000000 0.000000
vn 0.000000 -1.000000 0.000000
vn 0.000000 -1.000000 0.000000
vn 0.000000 -1.000000 0.000000
vn 0.000000 -1.000000 0.000000
vn 0.000000 -1.000000 0.000000
vn 0.000000 -1.000000 0.000000
vn 0.000000 -1.000000 0.000000
vn 0.000000 -1.000000 0.000000
vn 0.000000 -1.000000 0.000000
vn 0.000000 -1.000000 0.000000
vn 0.000000 -1.000000 0.000000
vn 0.000000 -1.000000 0.000000
vn 0.000000 -1.000000 0.000000
vn 0.000000 -1.000000 0.000000
vn 0.000000 -1.000000 0.000000
vn 0.000000 -1.000000 0.000000
vn 0.000000 -1.000000 0.000000
vn 0.000000 -1.000000 0.000000
vn 0.000000 -1.000000 0.000000
vn 0.000000 -1.000000 0.000000
vn 0.000000 -1.000000 0.000000
vn 0.000000 -1.000000 0.000000
vn 0.000000 -1.000000 0.000000
vn 0.000000 -1.000000 0.000000
vn 0.000000 -1.000000 0.000000
vn 0.000000 -1.000000 0.000000
vn 0.000000 -1.000000 0.000000
vn 0.000000 -1.000000 0.000000
vn 0.000000 -1.000000 0.000000
vn 0.000000 -1.000000 0.000000
vn 0.000000 -1.000000 0.000000
vn 0.000000 -1.000000 0.000000
vn 0.000000 -1.000000 0.000000
vn 0.000000 1.000000 0.000000
vn 0.000000 1.000000 0.000000
vn 0.000000 0.000000 0.000000
vn 0.000000 0.000000 0.000000
vn 0.000000 -0.000000 0.000000
vn 0.000000 -0.000000 0.000000
vn 0.000000 -0.000000 0.000000
vn 0.000000 -0.000000 0.000000
s 1
usemtl FANTOEXPORTer:lambert1SG
f 1/1/1 2/2/2 9/9/3 8/8/4
f 2/2/2 3/3/5 10/10/6 9/9/3
f 3/3/5 4/4/7 11/11/8 10/10/6
f 4/4/7 5/5/9 12/12/10 11/11/8
f 5/5/9 6/6/11 13/13/12 12/12/10
f 6/6/11 7/7/13 14/14/14 13/13/12
f 8/8/4 9/9/3 16/16/15 15/15/16
f 9/9/3 10/10/6 17/17/17 16/16/15
f 10/10/6 11/11/8 18/18/18 17/17/17
f 11/11/8 12/12/10 19/19/19 18/18/18
f 12/12/10 13/13/12 20/20/20 19/19/19
f 13/13/12 14/14/14 21/21/21 20/20/20
s 2
f 43/72/22 44/73/23 45/23/24 46/22/25
f 44/73/23 47/74/26 48/24/27 45/23/24
f 47/74/26 49/75/28 50/25/29 48/24/27
f 49/75/28 51/76/30 52/26/31 50/25/29
f 51/76/30 53/77/32 54/27/33 52/26/31
f 53/77/32 55/78/34 56/28/35 54/27/33
s 3
f 46/22/36 45/23/37 57/30/38 58/29/39
f 45/23/37 48/24/40 59/31/41 57/30/38
f 48/24/40 50/25/42 60/32/43 59/31/41
f 50/25/42 52/26/44 61/33/45 60/32/43
f 52/26/44 54/27/46 62/34/47 61/33/45
f 54/27/46 56/28/48 63/35/49 62/34/47
s 4
f 58/29/50 57/30/51 64/79/52 65/80/53
f 57/30/51 59/31/54 66/81/55 64/79/52
f 59/31/54 60/32/56 67/82/57 66/81/55
f 60/32/56 61/33/58 68/83/59 67/82/57
f 61/33/58 62/34/60 69/84/61 68/83/59
f 62/34/60 63/35/62 70/85/63 69/84/61
s 5
f 22/36/64 23/37/65 30/44/66 29/43/67
f 23/37/65 24/38/68 31/45/69 30/44/66
f 24/38/68 25/39/70 32/46/71 31/45/69
f 25/39/70 26/40/72 33/47/73 32/46/71
f 26/40/72 27/41/74 34/48/75 33/47/73
f 27/41/74 28/42/76 35/49/77 34/48/75
f 29/43/67 30/44/66 37/51/78 36/50/79
f 30/44/66 31/45/69 38/52/80 37/51/78
f 31/45/69 32/46/71 39/53/81 38/52/80
f 32/46/71 33/47/73 40/54/82 39/53/81
f 33/47/73 34/48/75 41/55/83 40/54/82
f 34/48/75 35/49/77 42/56/84 41/55/83
s 6
f 36/50/85 37/51/86 2/58/87 1/57/88
f 37/51/86 38/52/89 3/59/90 2/58/87
f 38/52/89 39/53/91 4/60/92 3/59/90
f 39/53/91 40/54/93 5/61/94 4/60/92
f 40/54/93 41/55/95 6/62/96 5/61/94
f 41/55/95 42/56/97 7/63/98 6/62/96
s 7
f 7/7/99 42/64/100 35/65/101 14/14/102
f 14/14/102 35/65/101 28/66/103 21/21/104
s off
f 55/78/105 70/86/106 63/67/107 56/28/108
s 8
f 36/68/109 1/1/110 8/8/111 29/69/112
f 29/69/112 8/8/111 15/15/113 22/70/114
s off
f 65/87/115 43/72/116 46/22/117 58/71/118
f 15/15/119 16/16/120 44/73/121 43/72/122
f 16/16/123 17/17/124 47/74/125 44/73/126
f 17/17/127 18/18/128 49/75/129 47/74/130
f 18/18/131 19/19/132 51/76/133 49/75/134
f 19/19/135 20/20/136 53/77/137 51/76/138
f 20/20/139 21/21/140 55/78/141 53/77/142
f 23/37/143 22/36/144 65/80/145 64/79/146
f 24/38/147 23/37/148 64/79/149 66/81/150
f 25/39/151 24/38/152 66/81/153 67/82/154
f 26/40/155 25/39/156 67/82/157 68/83/158
f 27/41/159 26/40/160 68/83/161 69/84/162
f 28/42/163 27/41/164 69/84/165 70/85/166
f 21/21/167 28/66/168 70/86/169 55/78/170
f 22/70/171 15/15/172 43/72/173 65/87/174
