# This file uses centimeters as units for non-parametric coordinates.

mtllib CylinderAbove.mtl
g default
v 0.278563 3.564996 -2.551484
v 0.119262 2.797299 -3.568094
v -0.002709 1.749250 -4.299498
v -0.075412 0.523443 -4.674105
v -0.091725 -0.760151 -4.655228
v -0.050057 -1.975874 -4.244718
v 0.045518 -3.004716 -3.482761
v 0.185640 -3.745982 -2.443951
v 0.356595 -4.127106 -1.229969
v 0.541648 -4.110762 0.040352
v 0.722685 -3.698577 1.242663
v 0.881984 -2.930889 2.259277
v 1.003958 -1.882851 2.990687
v 1.076658 -0.657029 3.365283
v 1.092972 0.626563 3.346401
v 1.051304 1.842280 2.935896
v 0.955729 2.871123 2.173937
v 0.815607 3.612386 1.135128
v 0.644653 3.993509 -0.078848
v 0.459600 3.977176 -1.349170
v 0.267095 3.968331 -2.764193
v 0.090094 3.115342 -3.893767
v -0.045429 1.950844 -4.706437
v -0.126208 0.588828 -5.122654
v -0.144334 -0.837386 -5.101676
v -0.098035 -2.188188 -4.645558
v 0.008156 -3.331351 -3.798945
v 0.163849 -4.154979 -2.644711
v 0.353799 -4.578443 -1.295841
v 0.559413 -4.560296 0.115627
v 0.760566 -4.102313 1.451533
v 0.937566 -3.249326 2.581104
v 1.073087 -2.084826 3.393775
v 1.153868 -0.722810 3.809990
v 1.171994 0.703404 3.789015
v 1.125697 2.054206 3.332893
v 1.019503 3.197367 2.486285
v 0.863812 4.020995 1.332050
v 0.673863 4.444459 -0.016819
v 0.468248 4.426312 -1.428288
v -8.755656 4.102317 -1.451533
v -8.932657 3.249328 -2.581106
v -9.068179 2.084829 -3.393778
v -9.148959 0.722814 -3.809991
v -9.167086 -0.703400 -3.789016
v -9.120788 -2.054202 -3.332895
v -9.014594 -3.197365 -2.486286
v -8.858904 -4.020993 -1.332050
v -8.668954 -4.444457 0.016819
v -8.463339 -4.426311 1.428288
v -8.262186 -3.968327 2.764193
v -8.085184 -3.115340 3.893766
v -7.949661 -1.950840 4.706435
v -7.868883 -0.588824 5.122653
v -7.850758 0.837390 5.101675
v -7.897055 2.188192 4.645556
v -8.003246 3.331353 3.798945
v -8.158938 4.154981 2.644711
v -8.348889 4.578445 1.295842
v -8.554503 4.560298 -0.115627
v -8.730983 3.698786 -1.240744
v -8.890284 2.931095 -2.257362
v -9.012255 1.883048 -2.988764
v -9.084956 0.657231 -3.363361
v -9.101270 -0.626360 -3.344481
v -9.059601 -1.842081 -2.933974
v -8.964027 -2.870930 -2.172022
v -8.823905 -3.612193 -1.133213
v -8.652950 -3.993314 0.080772
v -8.467896 -3.976978 1.351092
v -8.286860 -3.564797 2.553407
v -8.127560 -2.797105 3.570023
v -8.005588 -1.749057 4.301425
v -7.932886 -0.523241 4.676021
v -7.916574 0.760350 4.657140
v -7.958241 1.976072 4.246634
v -8.053815 3.004918 3.484684
v -8.193937 3.746181 2.445874
v -8.364892 4.127298 1.231891
v -8.549945 4.110966 -0.038431
vt 0.633742 0.112794
vt 0.613768 0.073593
vt 0.582657 0.042482
vt 0.543456 0.022508
vt 0.500000 0.015625
vt 0.456544 0.022508
vt 0.417343 0.042482
vt 0.386232 0.073593
vt 0.366258 0.112794
vt 0.359375 0.156250
vt 0.366258 0.199706
vt 0.386232 0.238907
vt 0.417343 0.270018
vt 0.456544 0.289992
vt 0.500000 0.296875
vt 0.543455 0.289992
vt 0.582657 0.270018
vt 0.613768 0.238907
vt 0.633742 0.199706
vt 0.640625 0.156250
vt 0.648603 0.107966
vt 0.626409 0.064408
vt 0.591842 0.029841
vt 0.548284 0.007647
vt 0.500000 -0.000000
vt 0.451716 0.007647
vt 0.408159 0.029841
vt 0.373591 0.064409
vt 0.351397 0.107966
vt 0.343750 0.156250
vt 0.351397 0.204534
vt 0.373591 0.248091
vt 0.408159 0.282659
vt 0.451716 0.304853
vt 0.500000 0.312500
vt 0.548284 0.304853
vt 0.591841 0.282659
vt 0.626409 0.248091
vt 0.648603 0.204534
vt 0.656250 0.156250
vt 0.375000 0.312500
vt 0.387500 0.312500
vt 0.400000 0.312500
vt 0.412500 0.312500
vt 0.425000 0.312500
vt 0.437500 0.312500
vt 0.450000 0.312500
vt 0.462500 0.312500
vt 0.475000 0.312500
vt 0.487500 0.312500
vt 0.500000 0.312500
vt 0.512500 0.312500
vt 0.525000 0.312500
vt 0.537500 0.312500
vt 0.550000 0.312500
vt 0.562500 0.312500
vt 0.575000 0.312500
vt 0.587500 0.312500
vt 0.600000 0.312500
vt 0.612500 0.312500
vt 0.625000 0.312500
vt 0.375000 0.688440
vt 0.387500 0.688440
vt 0.400000 0.688440
vt 0.412500 0.688440
vt 0.425000 0.688440
vt 0.437500 0.688440
vt 0.450000 0.688440
vt 0.462500 0.688440
vt 0.475000 0.688440
vt 0.487500 0.688440
vt 0.500000 0.688440
vt 0.512500 0.688440
vt 0.525000 0.688440
vt 0.537500 0.688440
vt 0.550000 0.688440
vt 0.562500 0.688440
vt 0.575000 0.688440
vt 0.587500 0.688440
vt 0.600000 0.688440
vt 0.612500 0.688440
vt 0.625000 0.688440
vt 0.648603 0.795466
vt 0.626409 0.751908
vt 0.591842 0.717341
vt 0.548284 0.695147
vt 0.500000 0.687500
vt 0.451716 0.695147
vt 0.408159 0.717341
vt 0.373591 0.751909
vt 0.351397 0.795466
vt 0.343750 0.843750
vt 0.351397 0.892034
vt 0.373591 0.935591
vt 0.408159 0.970159
vt 0.451716 0.992353
vt 0.500000 1.000000
vt 0.548284 0.992353
vt 0.591841 0.970159
vt 0.626409 0.935591
vt 0.648603 0.892034
vt 0.656250 0.843750
vt 0.633742 0.800294
vt 0.613768 0.761093
vt 0.582657 0.729982
vt 0.543456 0.710008
vt 0.500000 0.703125
vt 0.456544 0.710008
vt 0.417343 0.729982
vt 0.386232 0.761093
vt 0.366258 0.800294
vt 0.359375 0.843750
vt 0.366258 0.887206
vt 0.386232 0.926407
vt 0.417343 0.957518
vt 0.456544 0.977492
vt 0.500000 0.984375
vt 0.543455 0.977492
vt 0.582657 0.957518
vt 0.613768 0.926407
vt 0.633742 0.887205
vt 0.640625 0.843750
vt 0.000000 0.000000
vt 1.000000 0.000000
vt 1.000000 1.000000
vt 0.000000 1.000000
vt 0.000000 0.000000
vt 1.000000 0.000000
vt 1.000000 1.000000
vt 0.000000 1.000000
vt 0.000000 0.000000
vt 1.000000 0.000000
vt 1.000000 1.000000
vt 0.000000 1.000000
vt 0.000000 0.000000
vt 1.000000 0.000000
vt 1.000000 1.000000
vt 0.000000 1.000000
vt 0.000000 0.000000
vt 1.000000 0.000000
vt 1.000000 1.000000
vt 0.000000 1.000000
vt 0.000000 0.000000
vt 1.000000 0.000000
vt 1.000000 1.000000
vt 0.000000 1.000000
vt 0.000000 0.000000
vt 1.000000 0.000000
vt 1.000000 1.000000
vt 0.000000 1.000000
vt 0.000000 0.000000
vt 1.000000 0.000000
vt 1.000000 1.000000
vt 0.000000 1.000000
vt 0.000000 0.000000
vt 1.000000 0.000000
vt 1.000000 1.000000
vt 0.000000 1.000000
vt 0.000000 0.000000
vt 1.000000 0.000000
vt 1.000000 1.000000
vt 0.000000 1.000000
vt 0.000000 0.000000
vt 1.000000 0.000000
vt 1.000000 1.000000
vt 0.000000 1.000000
vt 0.000000 0.000000
vt 1.000000 0.000000
vt 1.000000 1.000000
vt 0.000000 1.000000
vt 0.000000 0.000000
vt 1.000000 0.000000
vt 1.000000 1.000000
vt 0.000000 1.000000
vt 0.000000 0.000000
vt 1.000000 0.000000
vt 1.000000 1.000000
vt 0.000000 1.000000
vt 0.000000 0.000000
vt 1.000000 0.000000
vt 1.000000 1.000000
vt 0.000000 1.000000
vt 0.000000 0.000000
vt 1.000000 0.000000
vt 1.000000 1.000000
vt 0.000000 1.000000
vt 0.000000 0.000000
vt 1.000000 0.000000
vt 1.000000 1.000000
vt 0.000000 1.000000
vt 0.000000 0.000000
vt 1.000000 0.000000
vt 1.000000 1.000000
vt 0.000000 1.000000
vt 0.000000 0.000000
vt 1.000000 0.000000
vt 1.000000 1.000000
vt 0.000000 1.000000
vt 0.000000 0.000000
vt 1.000000 0.000000
vt 1.000000 1.000000
vt 0.000000 1.000000
vn 0.990635 -0.040584 -0.130363
vn 0.991771 -0.035110 -0.123114
vn 0.991771 -0.035110 -0.123114
vn 0.990635 -0.040584 -0.130363
vn 0.992641 -0.027637 -0.117899
vn 0.992641 -0.027637 -0.117899
vn 0.993160 -0.018896 -0.115227
vn 0.993159 -0.018896 -0.115227
vn 0.993276 -0.009742 -0.115360
vn 0.993276 -0.009742 -0.115360
vn 0.992979 -0.001074 -0.118288
vn 0.992979 -0.001074 -0.118288
vn 0.992297 0.006263 -0.123722
vn 0.992297 0.006263 -0.123722
vn 0.991298 0.011550 -0.131129
vn 0.991298 0.011550 -0.131129
vn 0.990079 0.014268 -0.139786
vn 0.990079 0.014268 -0.139786
vn 0.988759 0.014150 -0.148845
vn 0.988759 0.014150 -0.148845
vn 0.987468 0.011211 -0.157418
vn 0.987468 0.011211 -0.157418
vn 0.986333 0.005736 -0.164667
vn 0.986333 0.005736 -0.164667
vn 0.985463 -0.001739 -0.169881
vn 0.985463 -0.001739 -0.169881
vn 0.984944 -0.010479 -0.172554
vn 0.984944 -0.010479 -0.172554
vn 0.984828 -0.019632 -0.172421
vn 0.984828 -0.019632 -0.172421
vn 0.985125 -0.028301 -0.169493
vn 0.985125 -0.028301 -0.169493
vn 0.985807 -0.035636 -0.164058
vn 0.985807 -0.035636 -0.164059
vn 0.986806 -0.040922 -0.156651
vn 0.986806 -0.040922 -0.156651
vn 0.988025 -0.043641 -0.147995
vn 0.988025 -0.043641 -0.147995
vn 0.989344 -0.043524 -0.138936
vn 0.989344 -0.043524 -0.138936
vn -0.054116 0.885063 -0.462315
vn -0.092938 0.697978 -0.710063
vn -0.092938 0.697978 -0.710063
vn -0.054116 0.885063 -0.462315
vn -0.122662 0.442570 -0.888305
vn -0.122662 0.442569 -0.888305
vn -0.140379 0.143840 -0.979594
vn -0.140379 0.143840 -0.979594
vn -0.144355 -0.168970 -0.974993
vn -0.144355 -0.168970 -0.974993
vn -0.134200 -0.465240 -0.874953
vn -0.134200 -0.465240 -0.874953
vn -0.110909 -0.715969 -0.689266
vn -0.110909 -0.715969 -0.689266
vn -0.076761 -0.896614 -0.436109
vn -0.076761 -0.896614 -0.436110
vn -0.035100 -0.989492 -0.140263
vn -0.035100 -0.989492 -0.140263
vn 0.009998 -0.985512 0.169312
vn 0.009998 -0.985512 0.169312
vn 0.054116 -0.885063 0.462315
vn 0.054116 -0.885063 0.462315
vn 0.092938 -0.697977 0.710063
vn 0.092938 -0.697977 0.710063
vn 0.122662 -0.442569 0.888305
vn 0.122662 -0.442569 0.888305
vn 0.140379 -0.143840 0.979594
vn 0.140379 -0.143840 0.979594
vn 0.144355 0.168970 0.974993
vn 0.144354 0.168970 0.974993
vn 0.134200 0.465240 0.874953
vn 0.134200 0.465240 0.874953
vn 0.110909 0.715969 0.689266
vn 0.110909 0.715969 0.689266
vn 0.076761 0.896614 0.436110
vn 0.076761 0.896614 0.436110
vn 0.035100 0.989492 0.140263
vn 0.035100 0.989492 0.140263
vn -0.009997 0.985512 -0.169312
vn -0.009997 0.985512 -0.169312
vn -0.989476 0.014694 0.143952
vn -0.989476 0.014695 0.143951
vn -0.989476 0.014695 0.143951
vn -0.989476 0.014694 0.143952
vn -0.989476 0.014695 0.143950
vn -0.989476 0.014695 0.143950
vn -0.989476 0.014695 0.143951
vn -0.989476 0.014695 0.143951
vn -0.989476 0.014693 0.143952
vn -0.989476 0.014693 0.143952
vn -0.989476 0.014692 0.143952
vn -0.989476 0.014692 0.143952
vn -0.989476 0.014691 0.143952
vn -0.989476 0.014691 0.143952
vn -0.989476 0.014693 0.143952
vn -0.989476 0.014693 0.143952
vn -0.989475 0.014695 0.143953
vn -0.989476 0.014695 0.143953
vn -0.989476 0.014695 0.143952
vn -0.989476 0.014695 0.143952
vn -0.989475 0.014692 0.143953
vn -0.989475 0.014692 0.143953
vn -0.989475 0.014691 0.143955
vn -0.989475 0.014691 0.143955
vn -0.989475 0.014693 0.143954
vn -0.989475 0.014693 0.143954
vn -0.989476 0.014693 0.143952
vn -0.989476 0.014693 0.143952
vn -0.989476 0.014693 0.143952
vn -0.989476 0.014693 0.143952
vn -0.989476 0.014695 0.143953
vn -0.989475 0.014695 0.143953
vn -0.989475 0.014695 0.143954
vn -0.989475 0.014695 0.143954
vn -0.989475 0.014694 0.143953
vn -0.989475 0.014694 0.143953
vn -0.989476 0.014694 0.143952
vn -0.989476 0.014694 0.143952
vn -0.989476 0.014694 0.143952
vn -0.989476 0.014694 0.143952
vn 0.054116 -0.885063 0.462316
vn 0.092937 -0.697977 0.710064
vn 0.092937 -0.697977 0.710064
vn 0.054116 -0.885063 0.462316
vn 0.122661 -0.442572 0.888304
vn 0.122661 -0.442572 0.888304
vn 0.140379 -0.143843 0.979593
vn 0.140379 -0.143843 0.979593
vn 0.144355 0.168970 0.974993
vn 0.144355 0.168970 0.974993
vn 0.134200 0.465242 0.874952
vn 0.134200 0.465242 0.874952
vn 0.110909 0.715970 0.689265
vn 0.110909 0.715970 0.689265
vn 0.076761 0.896613 0.436111
vn 0.076761 0.896613 0.436111
vn 0.035099 0.989492 0.140262
vn 0.035099 0.989492 0.140262
vn -0.009998 0.985511 -0.169315
vn -0.009998 0.985511 -0.169315
vn -0.054117 0.885063 -0.462315
vn -0.054117 0.885063 -0.462315
vn -0.092938 0.697979 -0.710062
vn -0.092938 0.697979 -0.710062
vn -0.122662 0.442571 -0.888305
vn -0.122662 0.442571 -0.888305
vn -0.140379 0.143839 -0.979594
vn -0.140379 0.143839 -0.979594
vn -0.144354 -0.168970 -0.974993
vn -0.144354 -0.168970 -0.974993
vn -0.134200 -0.465242 -0.874952
vn -0.134200 -0.465242 -0.874952
vn -0.110909 -0.715970 -0.689265
vn -0.110909 -0.715970 -0.689265
vn -0.076762 -0.896613 -0.436110
vn -0.076762 -0.896613 -0.436110
vn -0.035100 -0.989492 -0.140264
vn -0.035100 -0.989492 -0.140264
vn 0.009997 -0.985512 0.169311
vn 0.009997 -0.985512 0.169311
s 1
usemtl initialShadingGroup
f 1/1/1 2/2/2 22/22/3 21/21/4
f 2/2/2 3/3/5 23/23/6 22/22/3
f 3/3/5 4/4/7 24/24/8 23/23/6
f 4/4/7 5/5/9 25/25/10 24/24/8
f 5/5/9 6/6/11 26/26/12 25/25/10
f 6/6/11 7/7/13 27/27/14 26/26/12
f 7/7/13 8/8/15 28/28/16 27/27/14
f 8/8/15 9/9/17 29/29/18 28/28/16
f 9/9/17 10/10/19 30/30/20 29/29/18
f 10/10/19 11/11/21 31/31/22 30/30/20
f 11/11/21 12/12/23 32/32/24 31/31/22
f 12/12/23 13/13/25 33/33/26 32/32/24
f 13/13/25 14/14/27 34/34/28 33/33/26
f 14/14/27 15/15/29 35/35/30 34/34/28
f 15/15/29 16/16/31 36/36/32 35/35/30
f 16/16/31 17/17/33 37/37/34 36/36/32
f 17/17/33 18/18/35 38/38/36 37/37/34
f 18/18/35 19/19/37 39/39/38 38/38/36
f 19/19/37 20/20/39 40/40/40 39/39/38
f 20/20/39 1/1/1 21/21/4 40/40/40
s 2
f 21/41/41 22/42/42 42/63/43 41/62/44
f 22/42/42 23/43/45 43/64/46 42/63/43
f 23/43/45 24/44/47 44/65/48 43/64/46
f 24/44/47 25/45/49 45/66/50 44/65/48
f 25/45/49 26/46/51 46/67/52 45/66/50
f 26/46/51 27/47/53 47/68/54 46/67/52
f 27/47/53 28/48/55 48/69/56 47/68/54
f 28/48/55 29/49/57 49/70/58 48/69/56
f 29/49/57 30/50/59 50/71/60 49/70/58
f 30/50/59 31/51/61 51/72/62 50/71/60
f 31/51/61 32/52/63 52/73/64 51/72/62
f 32/52/63 33/53/65 53/74/66 52/73/64
f 33/53/65 34/54/67 54/75/68 53/74/66
f 34/54/67 35/55/69 55/76/70 54/75/68
f 35/55/69 36/56/71 56/77/72 55/76/70
f 36/56/71 37/57/73 57/78/74 56/77/72
f 37/57/73 38/58/75 58/79/76 57/78/74
f 38/58/75 39/59/77 59/80/78 58/79/76
f 39/59/77 40/60/79 60/81/80 59/80/78
f 40/60/79 21/61/41 41/82/44 60/81/80
s 3
f 41/101/81 42/100/82 62/120/83 61/121/84
f 42/100/82 43/99/85 63/119/86 62/120/83
f 43/99/85 44/98/87 64/118/88 63/119/86
f 44/98/87 45/97/89 65/117/90 64/118/88
f 45/97/89 46/96/91 66/116/92 65/117/90
f 46/96/91 47/95/93 67/115/94 66/116/92
f 47/95/93 48/94/95 68/114/96 67/115/94
f 48/94/95 49/93/97 69/113/98 68/114/96
f 49/93/97 50/92/99 70/112/100 69/113/98
f 50/92/99 51/91/101 71/111/102 70/112/100
f 51/91/101 52/90/103 72/110/104 71/111/102
f 52/90/103 53/89/105 73/109/106 72/110/104
f 53/89/105 54/88/107 74/108/108 73/109/106
f 54/88/107 55/87/109 75/107/110 74/108/108
f 55/87/109 56/86/111 76/106/112 75/107/110
f 56/86/111 57/85/113 77/105/114 76/106/112
f 57/85/113 58/84/115 78/104/116 77/105/114
f 58/84/115 59/83/117 79/103/118 78/104/116
f 59/83/117 60/102/119 80/122/120 79/103/118
f 60/102/119 41/101/81 61/121/84 80/122/120
s 4
f 61/123/121 62/124/122 2/125/123 1/126/124
f 62/127/122 63/128/125 3/129/126 2/130/123
f 63/131/125 64/132/127 4/133/128 3/134/126
f 64/135/127 65/136/129 5/137/130 4/138/128
f 65/139/129 66/140/131 6/141/132 5/142/130
f 66/143/131 67/144/133 7/145/134 6/146/132
f 67/147/133 68/148/135 8/149/136 7/150/134
f 68/151/135 69/152/137 9/153/138 8/154/136
f 69/155/137 70/156/139 10/157/140 9/158/138
f 70/159/139 71/160/141 11/161/142 10/162/140
f 71/163/141 72/164/143 12/165/144 11/166/142
f 72/167/143 73/168/145 13/169/146 12/170/144
f 73/171/145 74/172/147 14/173/148 13/174/146
f 74/175/147 75/176/149 15/177/150 14/178/148
f 75/179/149 76/180/151 16/181/152 15/182/150
f 76/183/151 77/184/153 17/185/154 16/186/152
f 77/187/153 78/188/155 18/189/156 17/190/154
f 78/191/155 79/192/157 19/193/158 18/194/156
f 79/195/157 80/196/159 20/197/160 19/198/158
f 80/199/159 61/200/121 1/201/124 20/202/160
